<svg xmlns="http://www.w3.org/2000/svg" version="1.1" id="Layer_1" viewBox="0 0 24 24" width="24" height="24"><metadata><rdf:RDF xmlns:rdf="http://www.w3.org/1999/02/22-rdf-syntax-ns#" xmlns:dc="http://purl.org/dc/elements/1.1/"><rdf:Description><dc:creator>RealFaviconGenerator</dc:creator><dc:source>https://realfavicongenerator.net</dc:source></rdf:Description></rdf:RDF></metadata><defs>
    <style>
      .st0 {
        fill: #fff;
        stroke-linejoin: round;
      }

      .st0, .st1 {
        stroke: #000;
        stroke-linecap: round;
      }

      .st1 {
        fill: none;
        stroke-miterlimit: 10;
      }
    </style>
  </defs><path class="st0" d="M21.3,16.7H3c-.4,0-.8-.3-.8-.7l-.9-9.2c0-.4.4-.7.8-.7h19.6c.4,0,.8.3.8.7l-.6,9.2c0,.4-.4.7-.8.7Z"></path><path d="M12,4.1c-.9,0-1.6.7-1.6,1.6h3.3c0-.9-.7-1.6-1.6-1.6Z"></path><line class="st1" x1="12.9" y1="4.7" x2="17.4" y2="1.2"></line><line class="st1" x1="11" y1="4.7" x2="6.8" y2="1"></line><polygon points="4.7 23.4 5.2 16.4 7.1 16.4 4.7 23.4"></polygon><polyline points="15.9 16.4 18.3 23.4 17.7 16.4"></polyline></svg>