<?xml version="1.0" encoding="UTF-8"?><svg id="Layer_1" xmlns="http://www.w3.org/2000/svg" xmlns:xlink="http://www.w3.org/1999/xlink" viewBox="0 0 1073.64 1024"><defs><style>.cls-1{filter:url(#drop-shadow-2);font-family:Roboto-BlackItalic, Roboto;font-size:150px;font-style:italic;font-weight:800;}.cls-1,.cls-2{fill:#fff;}.cls-3{filter:url(#drop-shadow-3);}.cls-3,.cls-4{stroke-linecap:round;}.cls-3,.cls-4,.cls-5{fill:none;stroke:#fff;stroke-miterlimit:10;}.cls-3,.cls-5{stroke-width:40px;}.cls-6{letter-spacing:-.02em;}.cls-4{stroke-width:20px;}.cls-7{filter:url(#drop-shadow-1);}.cls-8{letter-spacing:0em;}.cls-9{letter-spacing:-.03em;}.cls-10{fill:url(#linear-gradient);}</style><linearGradient id="linear-gradient" x1="13" y1="13.72" x2="1005.86" y2="1005.14" gradientUnits="userSpaceOnUse"><stop offset="0" stop-color="#675678"/><stop offset=".1" stop-color="#746186"/><stop offset=".31" stop-color="#8c75a0"/><stop offset=".53" stop-color="#9d84b3"/><stop offset=".76" stop-color="#a78dbf"/><stop offset="1" stop-color="#ab90c3"/></linearGradient><filter id="drop-shadow-1" x="64.92" y="105.24" width="908.16" height="817.44" filterUnits="userSpaceOnUse"><feOffset dx="7" dy="7"/><feGaussianBlur result="blur" stdDeviation="5"/><feFlood flood-color="#231f20" flood-opacity=".75"/><feComposite in2="blur" operator="in"/><feComposite in="SourceGraphic"/></filter><filter id="drop-shadow-2" filterUnits="userSpaceOnUse"><feOffset dx="7" dy="7"/><feGaussianBlur result="blur-2" stdDeviation="5"/><feFlood flood-color="#231f20" flood-opacity=".75"/><feComposite in2="blur-2" operator="in"/><feComposite in="SourceGraphic"/></filter><filter id="drop-shadow-3" x="235.08" y="563.64" width="776.4" height="70.32" filterUnits="userSpaceOnUse"><feOffset dx="7" dy="7"/><feGaussianBlur result="blur-3" stdDeviation="5"/><feFlood flood-color="#231f20" flood-opacity=".75"/><feComposite in2="blur-3" operator="in"/><feComposite in="SourceGraphic"/></filter></defs><rect class="cls-10" width="1024" height="1024"/><g class="cls-7"><path class="cls-2" d="M361.98,708.4h45.44c4.92,0,8.36,4.62,6.74,9.04l-65.31,178.5c-2.79,7.63-14.74,5.08-13.85-2.96l19.88-178.5c.39-3.46,3.45-6.08,7.1-6.08Z"/><path class="cls-2" d="M690.93,708.4h-45.44c-4.92,0-8.36,4.62-6.74,9.04l65.31,178.5c2.79,7.63,14.74,5.08,13.85-2.96l-19.88-178.5c-.39-3.46-3.45-6.08-7.1-6.08Z"/><path class="cls-2" d="M565.85,343.02c-.64-29.21-24.49-52.69-53.85-52.69s-53.22,23.49-53.85,52.69h107.71Z"/><line class="cls-4" x1="521.37" y1="319.1" x2="692.4" y2="123.47"/><line class="cls-4" x1="505.98" y1="319.1" x2="373.14" y2="167.15"/><path class="cls-5" d="M874.48,677.09c-3.52,18.18-19.44,31.32-37.96,31.32H187.49c-18.52,0-34.44-13.13-37.96-31.32l-55.78-288.04c-4.62-23.86,13.66-46.02,37.96-46.02h760.58c24.31,0,42.58,22.16,37.96,46.02"/></g><text class="cls-1" transform="translate(232.72 520.21)"><tspan x="0" y="0">Our</tspan><tspan class="cls-9" x="239.87" y="0"> </tspan><tspan class="cls-8" x="272.46" y="0">T</tspan><tspan x="366.06" y="0">V </tspan><tspan class="cls-6" x="499.88" y="0">A</tspan><tspan x="596.19" y="0">pp</tspan></text><line class="cls-3" x1="263.29" y1="591.8" x2="969.28" y2="591.8"/></svg>