<?xml version="1.0" standalone="no"?>
<!DOCTYPE svg PUBLIC "-//W3C//DTD SVG 20010904//EN"
 "http://www.w3.org/TR/2001/REC-SVG-20010904/DTD/svg10.dtd">
<svg version="1.0" xmlns="http://www.w3.org/2000/svg"
 width="1024.000000pt" height="1024.000000pt" viewBox="0 0 1024.000000 1024.000000"
 preserveAspectRatio="xMidYMid meet">
<metadata>
Created by potrace 1.14, written by Peter Selinger 2001-2017
</metadata>
<g transform="translate(0.000000,1024.000000) scale(0.100000,-0.100000)"
fill="#000000" stroke="none">
<path d="M6149 8209 c-409 -469 -757 -867 -774 -886 l-30 -33 -63 20 c-92 29
-242 27 -339 -4 -18 -6 -79 59 -478 516 -759 867 -695 798 -730 798 -39 0 -55
-16 -55 -53 0 -33 6 -40 708 -842 l421 -480 -59 -60 c-74 -77 -116 -143 -141
-227 l-21 -68 -1667 0 c-1474 0 -1674 -2 -1726 -16 -197 -51 -345 -242 -345
-447 0 -66 560 -2974 587 -3047 25 -68 74 -140 130 -190 54 -49 197 -124 266
-140 25 -6 368 -10 873 -10 l832 0 -4 -42 c-3 -24 -45 -407 -94 -853 -50 -445
-90 -824 -90 -842 0 -47 36 -71 106 -71 46 1 58 4 70 23 15 22 53 126 174 461
38 106 73 200 79 210 11 18 168 444 276 749 107 304 117 325 169 353 28 15
121 17 1097 20 l1067 4 22 -59 c12 -32 152 -413 311 -848 341 -931 326 -893
351 -906 23 -13 104 -3 114 13 14 22 12 46 -86 938 -80 728 -82 749 -70 786
24 72 -15 68 765 74 627 5 705 8 752 23 72 24 123 55 183 110 77 71 104 138
151 379 22 112 53 266 69 343 31 149 78 390 106 543 13 76 14 98 4 117 -8 15
-10 40 -5 73 7 57 13 52 -88 72 -32 7 -60 10 -61 8 -2 -1 -58 -289 -125 -637
-76 -393 -130 -649 -142 -673 -31 -61 -76 -105 -141 -138 l-61 -30 -3308 0
c-3279 0 -3309 0 -3361 20 -52 20 -105 61 -133 103 -16 25 -95 426 -250 1272
-42 226 -84 453 -95 505 -11 52 -40 208 -65 345 -25 138 -49 266 -54 285 -6
19 -19 89 -31 155 -12 66 -33 180 -47 254 -30 158 -28 222 9 304 44 94 122
154 228 176 60 12 3114 29 6071 33 l1655 3 42 -28 c81 -53 137 -166 130 -260
l-3 -42 65 -17 c93 -24 109 -23 120 8 6 15 8 43 4 63 -10 58 -52 179 -81 233
-33 61 -132 155 -197 187 -108 53 -25 51 -1802 51 l-1651 0 -37 74 c-21 41
-55 101 -77 133 -64 96 -67 90 162 354 79 91 156 179 171 197 15 18 30 32 35
32 4 0 127 138 273 307 146 169 371 429 501 578 129 149 245 286 258 303 26
37 25 78 -2 76 -17 -2 -17 0 -3 15 36 39 9 101 -43 101 -23 0 -125 -112 -772
-851z"/>
<path d="M5270 5908 c-19 -7 -58 -35 -86 -63 -69 -68 -88 -127 -88 -260 1
-131 25 -196 94 -258 124 -112 315 -82 393 62 55 101 59 290 7 390 -23 47 -71
96 -114 118 -38 20 -159 26 -206 11z m169 -106 c51 -38 65 -78 70 -195 4 -124
-10 -175 -59 -222 -25 -24 -39 -29 -84 -29 -62 -1 -99 20 -131 75 -24 41 -34
210 -16 275 29 108 140 156 220 96z"/>
<path d="M6710 5865 l0 -45 100 0 100 0 0 -275 0 -275 55 0 55 0 0 275 0 275
100 0 100 0 0 45 0 45 -255 0 -255 0 0 -45z"/>
<path d="M7250 5906 c0 -4 132 -374 197 -551 l29 -80 55 -3 54 -3 113 314 c61
172 112 316 112 320 0 4 -27 7 -59 7 l-60 0 -66 -207 c-95 -299 -92 -290 -99
-273 -3 8 -39 119 -80 245 l-73 230 -62 3 c-33 2 -61 1 -61 -2z"/>
<path d="M8291 5888 c-11 -31 -218 -578 -227 -601 -6 -16 -1 -18 52 -15 l59 3
25 73 25 72 126 0 125 0 24 -75 24 -75 59 0 c52 0 58 2 52 18 -4 9 -45 118
-92 242 -47 124 -98 260 -115 303 l-29 77 -50 0 c-42 0 -51 -3 -58 -22z m103
-241 c21 -61 41 -118 44 -124 3 -10 -19 -13 -88 -13 -69 0 -91 3 -88 13 3 6
22 63 43 125 21 61 41 112 44 112 3 0 24 -51 45 -113z"/>
<path d="M5722 5558 c3 -217 12 -246 78 -281 48 -25 139 -19 180 11 30 22 30
22 30 2 0 -18 6 -20 55 -20 l55 0 0 240 0 240 -55 0 -55 0 0 -173 c0 -170 0
-174 -24 -196 -13 -12 -42 -25 -64 -28 -34 -5 -45 -1 -66 20 -26 26 -26 26
-26 202 l0 175 -56 0 -56 0 4 -192z"/>
<path d="M6220 5510 l0 -240 55 0 55 0 0 163 c1 117 4 167 14 179 16 21 58 38
97 38 28 0 29 1 29 51 l0 52 -46 -6 c-28 -3 -54 -13 -70 -28 l-24 -22 0 26 c0
26 -2 27 -55 27 l-55 0 0 -240z"/>
<path d="M8690 5420 l0 -330 50 0 50 0 0 111 0 110 26 -20 c14 -11 45 -23 68
-26 121 -19 204 64 214 211 12 181 -75 290 -214 269 -23 -3 -54 -15 -68 -26
l-25 -20 -7 26 c-5 22 -11 25 -50 25 l-44 0 0 -330z m260 213 c37 -34 51 -98
39 -175 -14 -91 -84 -132 -158 -93 -16 8 -31 22 -35 30 -12 31 -7 210 7 227
36 46 103 51 147 11z"/>
<path d="M9190 5420 l0 -330 50 0 50 0 0 111 0 110 26 -20 c14 -11 45 -23 68
-26 121 -19 204 64 214 211 12 181 -75 290 -214 269 -23 -3 -54 -15 -68 -26
l-25 -20 -7 26 c-5 22 -11 25 -50 25 l-44 0 0 -330z m260 213 c37 -34 51 -98
39 -175 -14 -91 -84 -132 -158 -93 -16 8 -31 22 -35 30 -12 31 -7 210 7 227
36 46 103 51 147 11z"/>
<path d="M4282 5040 c-28 -26 -30 -90 -4 -113 17 -16 228 -17 2830 -17 l2811
0 21 27 c26 33 21 79 -11 106 -20 16 -169 17 -2823 17 l-2802 0 -22 -20z"/>
</g>
</svg>
