<?xml version="1.0" standalone="no"?>
<!DOCTYPE svg PUBLIC "-//W3C//DTD SVG 20010904//EN"
 "http://www.w3.org/TR/2001/REC-SVG-20010904/DTD/svg10.dtd">
<svg version="1.0" xmlns="http://www.w3.org/2000/svg"
 width="466.000000pt" height="466.000000pt" viewBox="0 0 466.000000 466.000000"
 preserveAspectRatio="xMidYMid meet">
<metadata>
Created by potrace 1.14, written by Peter Selinger 2001-2017
</metadata>
<g transform="translate(0.000000,466.000000) scale(0.100000,-0.100000)"
fill="#000000" stroke="none">
<path d="M2658 3637 l-333 -333 -35 13 c-48 16 -81 16 -135 -2 -45 -16 -45
-16 -71 12 -74 80 -256 274 -301 321 -29 31 -53 56 -53 57 0 0 -25 27 -55 60
-58 61 -80 73 -89 48 -6 -14 8 -31 259 -298 73 -77 154 -164 182 -194 l51 -55
-19 -30 c-10 -17 -19 -39 -19 -48 0 -10 -6 -19 -12 -19 -7 -1 -418 -2 -913 -3
l-900 -2 -50 -23 c-86 -38 -134 -103 -130 -171 2 -42 15 -122 20 -131 2 -3 9
-32 14 -65 12 -70 13 -75 52 -269 17 -82 32 -161 34 -175 3 -22 50 -258 59
-300 2 -8 7 -35 11 -60 4 -25 11 -61 16 -80 9 -38 65 -323 75 -386 3 -22 8
-42 9 -45 2 -3 7 -28 11 -55 14 -109 81 -179 189 -200 22 -4 280 -8 575 -8
529 -1 535 -1 533 -21 -3 -31 -14 -116 -18 -134 -1 -9 -8 -52 -14 -96 -7 -44
-16 -102 -21 -130 -5 -27 -12 -70 -15 -95 -3 -25 -10 -70 -15 -100 -22 -129
-23 -150 -6 -150 9 0 16 1 16 3 0 2 33 102 73 223 41 120 91 271 111 334 20
63 42 127 47 141 l10 26 369 0 370 1 118 -362 c81 -244 124 -361 133 -361 19
0 17 37 -11 205 -10 58 -15 89 -24 155 -3 22 -15 97 -26 166 -12 69 -22 142
-24 161 l-4 35 572 0 c501 1 576 3 615 17 56 21 107 59 125 95 13 24 47 181
60 274 3 17 7 43 10 57 13 58 16 77 22 115 10 77 8 75 92 75 42 1 162 2 267 3
l190 2 0 520 0 520 -171 3 -171 2 1 73 c0 60 -3 78 -23 108 -14 19 -38 45 -55
56 -74 48 -58 47 -963 48 l-852 0 -29 57 -28 57 332 332 c309 309 352 359 309
359 -7 0 -163 -150 -347 -333z"/>
</g>
</svg>
